<svg width="281" height="264" viewBox="0 0 281 264" fill="none" xmlns="http://www.w3.org/2000/svg">
<ellipse cx="22" cy="98" rx="22" ry="46" fill="black"/>
<ellipse cx="259" cy="98" rx="22" ry="46" fill="black"/>
<path fill-rule="evenodd" clip-rule="evenodd" d="M266 54.989C264.671 54.7507 257.006 50.6184 238.211 40.0179C209.732 23.9561 205.143 21.8101 198.065 21.2419C190.433 20.629 185.509 22.7371 181.926 28.151C179.811 31.348 179.27 33.662 178.693 41.985C178.311 47.481 177.787 52.191 177.527 52.451C177.267 52.7109 173.025 51.807 168.1 50.441C152.078 46 127.185 46.204 110.195 50.915C105.461 52.228 103.392 52.4399 103.144 51.636C102.95 51.011 102.605 47.125 102.377 43C101.353 24.517 89.2563 16.49 72.8652 23.418C66.9333 25.925 63.2493 27.917 33.1904 44.8719C23.7742 50.1841 15.4209 54.5742 14 54.9708V140.028L16.8904 142.679C26.8323 151.798 35.2544 153.312 46.4854 147.999C49.9724 146.35 53.1934 145 53.6443 145C54.0952 145 53.8403 147.363 53.0784 150.25C50.8113 158.838 49.4482 174.773 50.1953 183.955C52.4661 211.869 67.7971 237.769 89.6318 253H189.975C206.727 240.928 218.324 225.688 225.907 205.833C229.078 197.53 229.089 197.432 229.041 179C228.994 161.212 228.575 157.674 225.04 145.209C224.417 143.011 224.669 143.063 231.268 146.508C243.732 153.013 252.93 152.158 262.389 143.613C263.839 142.303 265.189 141.15 266 140.516V140H266.756C266.76 139.999 266.763 139.999 266.766 139.999L266.769 140H267V55H266.105H266V54.989ZM63 0.12109C63.366 0.0805699 63.7368 0.04016 64.1125 0H63V0.12109ZM146.176 67.198C146.469 67.491 147.158 75.7791 147.707 85.616C149.396 115.892 150.126 121.12 153.725 128.721C158.114 137.992 168.411 147.926 186.647 160.485C194.621 165.977 203.058 172.222 205.395 174.362C209.243 177.887 209.645 178.7 209.645 182.967C209.645 189.558 206.291 201.951 202.226 210.378C196.459 222.337 186.594 232 180.155 232C172.208 232 152.303 216.95 148.732 208.242L147.395 204.983L154.789 197.242C158.856 192.984 163.013 187.749 164.028 185.608C167.485 178.317 164.431 169.009 157.385 165.365C152.873 163.032 142.544 162.03 133.076 163.007C119.294 164.429 115.645 167.775 115.645 178.99C115.645 186.844 118.117 191.736 125.781 199.052C129.006 202.13 131.645 205.326 131.645 206.153C131.645 210.86 119.258 224.154 111.028 228.28C103.395 232.106 99.3064 232.499 93.9744 229.917C82.7812 224.499 69.9253 197.772 70.8403 181.823L71.1453 176.515L78.1453 171.762C111.384 149.194 123.508 137.268 128.605 122.124C131.164 114.521 132.565 100.47 132.611 81.95C132.635 72.502 133.023 68.011 133.895 67.115C135.1 65.876 144.921 65.942 146.176 67.198ZM103.7 96.03C106.144 97.337 108.645 102.127 108.645 105.5C108.645 108.873 106.144 113.663 103.7 114.97C102.642 115.537 99.7622 116 97.3003 116C93.5283 116 92.4153 115.515 90.2344 112.923C84.1943 105.746 88.6313 95 97.6343 95C99.9124 95 102.642 95.463 103.7 96.03ZM187.665 96.51C192.874 99.204 194.413 105.68 191.282 111.735C189.499 115.183 187.915 116 183.014 116C172.358 116 167.711 105.734 175.045 98.4C178.872 94.573 182.786 93.987 187.665 96.51ZM148.017 235.955C155.414 242.357 158.251 245.725 157.167 246.815C156.114 247.872 128.407 248.255 124.588 247.265L121.202 246.388L126.052 241.203C130.312 236.648 138.937 229.994 140.566 230.003C140.885 230.005 144.237 232.683 148.017 235.955Z" fill="black"/>
<path d="M191 252C186.565 258.826 165.419 264 140 264C114.581 264 93.4354 258.826 89 252H191Z" fill="black"/>
</svg>
